<svg id="Capa_1" data-name="Capa 1" xmlns="http://www.w3.org/2000/svg" viewBox="0 0 455.8 455.8"><defs><style>.cls-1{fill:#b7b6b6;}.cls-2{fill:red;}</style></defs><path class="cls-1" d="M455,160.7a4.35,4.35,0,0,0-.6-.7A320.25,320.25,0,0,0,1.5,160,5.15,5.15,0,0,0,0,163.6a4.69,4.69,0,0,0,1.5,3.5l33.1,33.1a5.09,5.09,0,0,0,3.5,1.5,4.69,4.69,0,0,0,3.5-1.5,263.15,263.15,0,0,1,372.6,0,5.09,5.09,0,0,0,3.5,1.5,4.69,4.69,0,0,0,3.5-1.5l33.1-33.1a5.09,5.09,0,0,0,1.5-3.5A5.47,5.47,0,0,0,455,160.7Z"/><path class="cls-1" d="M227.9,153.7A231.1,231.1,0,0,0,63.4,221.9a5,5,0,0,0,0,7.1l33,33a5.09,5.09,0,0,0,3.5,1.5,4.69,4.69,0,0,0,3.5-1.5,175.76,175.76,0,0,1,248.8,0,5.09,5.09,0,0,0,3.5,1.5,4.69,4.69,0,0,0,3.5-1.5l33-33a5.09,5.09,0,0,0,1.5-3.5,4.69,4.69,0,0,0-1.5-3.5A230.39,230.39,0,0,0,227.9,153.7Z"/><path class="cls-1" d="M227.9,241.3a144.43,144.43,0,0,0-102.6,42.5,5.09,5.09,0,0,0-1.5,3.5,4.69,4.69,0,0,0,1.5,3.5l33,33a5.09,5.09,0,0,0,3.5,1.5,4.69,4.69,0,0,0,3.5-1.5,88.36,88.36,0,0,1,125,0,5.09,5.09,0,0,0,3.5,1.5,4.69,4.69,0,0,0,3.5-1.5l33-33a5,5,0,0,0,0-7.1A144,144,0,0,0,227.9,241.3Z"/><path class="cls-2" d="M227.9,334.1a50.64,50.64,0,0,0-35.8,14.8,5,5,0,0,0,0,7.1l32.2,32.2a5.09,5.09,0,0,0,3.5,1.5,4.69,4.69,0,0,0,3.5-1.5L263.5,356a5,5,0,0,0,0-7.1A49.42,49.42,0,0,0,227.9,334.1Z"/></svg>