%
M48
M72
T01C0.01378
T02C0.02362
T03C0.03200
T04C0.03543
T05C0.03600
T06C0.03937
T07C0.04000
T08C0.04400
T09C0.04700
T10C0.05118
T11C0.05315
T12C0.05900
T13C0.05906
T14C0.06299
T15C0.06500
T16C0.06693
T17C0.10827
T18C0.12598
T19C0.18898
%
T01
X679937Y248441
X689780Y250180
X700016Y252180
X709858Y254180
X719701Y256180
X729937Y258180
X739386Y260180
X779543Y218165
X958283Y318913
X958283Y330724
X942535Y326315
X932177Y338327
X911130Y345251
X942535Y363795
X918520Y380922
X903165Y388992
X893323Y389386
X868520Y419078
X858283Y419078
X848441Y419307
X968988Y415051
X971669Y386236
X974031Y382693
X997654Y363008
X998314Y334141
T02
X360252Y224819
X464976Y224819
X868913Y369701
X889189Y304543
X897654Y304346
X661827Y511827
X647260Y518913
X505134Y511827
X443323Y518913
X426394Y478756
T03
X284819Y43165
X294819Y43165
X289819Y58165
X289819Y68165
X294819Y103165
X284819Y103165
X289819Y118165
X289819Y128165
X294819Y163165
X284819Y163165
X289819Y178165
X289819Y188165
X294819Y223165
X284819Y223165
X289819Y238165
X289819Y248165
X314819Y243165
X314819Y253165
X314819Y263165
X314819Y273165
X314819Y283165
X314819Y293165
X314819Y303165
X314819Y313165
X314819Y323165
X344819Y323165
X344819Y313165
X344819Y303165
X344819Y293165
X344819Y283165
X344819Y273165
X344819Y263165
X344819Y253165
X344819Y243165
X354819Y218165
X374819Y238165
X384819Y238165
X394819Y238165
X404819Y238165
X414819Y238165
X424819Y238165
X434819Y238165
X444819Y238165
X454819Y238165
X464819Y238165
X479819Y243165
X479819Y263165
X464819Y268165
X454819Y268165
X444819Y268165
X434819Y268165
X424819Y268165
X414819Y268165
X404819Y268165
X394819Y268165
X384819Y268165
X374819Y268165
X384819Y283165
X394819Y283165
X404819Y283165
X414819Y283165
X424819Y283165
X434819Y283165
X444819Y283165
X454819Y283165
X454819Y313165
X444819Y313165
X434819Y313165
X424819Y313165
X414819Y313165
X404819Y313165
X394819Y313165
X384819Y313165
X294819Y283165
X284819Y283165
X289819Y298165
X289819Y308165
X294819Y343165
X284819Y343165
X289819Y358165
X289819Y368165
X294819Y403165
X284819Y403165
X289819Y418165
X289819Y428165
X324819Y438165
X324819Y448165
X294819Y463165
X284819Y463165
X289819Y478165
X289819Y488165
X324819Y485665
X324819Y475665
X317319Y521039
X307319Y521039
X307319Y531039
X317319Y531039
X337319Y533539
X337319Y523539
X337319Y543539
X415016Y548441
X445016Y548441
X392635Y417217
X376113Y417537
X376113Y397537
X392635Y397217
X224819Y536039
X224819Y556039
X194819Y581039
X164819Y581039
X164819Y571039
X164819Y541039
X989819Y173165
X979819Y173165
X984819Y188165
X984819Y218165
X988087Y232012
X978087Y232012
X1004110Y231827
X1014110Y231827
X1014110Y251512
X1004110Y251512
X988087Y251789
X978087Y251789
X978087Y271566
X988087Y271566
X1004110Y271787
X1014110Y271787
X1014110Y291472
X1004110Y291472
X988087Y291342
X978087Y291342
X928087Y306315
X909465Y311315
X909465Y321315
X928087Y326315
X889228Y347407
X879071Y347407
X868913Y347407
X868913Y377407
X879071Y377407
X889228Y377407
X882142Y274189
X882142Y260409
X882142Y246630
X882142Y232850
X894819Y218165
X912142Y232850
X912142Y246630
X912142Y260409
X912142Y274189
X804819Y218165
X804819Y188165
X809819Y173165
X799819Y173165
X719819Y173165
X709819Y173165
X714819Y188165
X714819Y218165
X719819Y238165
X729819Y238165
X739819Y238165
X749819Y238165
X709819Y238165
X699819Y238165
X689819Y238165
X679819Y238165
X669819Y238165
X669819Y268165
X679819Y268165
X689819Y268165
X699819Y268165
X709819Y268165
X719819Y268165
X729819Y268165
X739819Y268165
X749819Y268165
X624819Y218165
X624819Y188165
X629819Y173165
X619819Y173165
X539819Y173165
X529819Y173165
X534819Y188165
X534819Y218165
X444819Y218165
X444819Y188165
X449819Y173165
X439819Y173165
X359819Y173165
X349819Y173165
X354819Y188165
X651551Y498047
X681551Y498047
X894819Y188165
X899819Y173165
X889819Y173165
T04
X226433Y572969
X239819Y572969
X253205Y572969
X246512Y588323
X233126Y588323
T05
X904260Y357407
X904260Y367407
X661709Y484268
X651709Y484268
T06
X369819Y433165
X359819Y433165
X349819Y433165
X349819Y470665
X359819Y470665
X369819Y470665
X477969Y481157
X487969Y481157
X497969Y481157
X507969Y481157
X517969Y481157
X527969Y481157
X537969Y481157
X547969Y481157
X557969Y481157
X567969Y481157
X577969Y481157
X587969Y481157
X597969Y481157
X607969Y481157
X617969Y481157
X617969Y541157
X607969Y541157
X597969Y541157
X587969Y541157
X577969Y541157
X567969Y541157
X557969Y541157
X547969Y541157
X537969Y541157
X527969Y541157
X517969Y541157
X507969Y541157
X497969Y541157
X487969Y541157
X477969Y541157
T07
X194819Y541039
X194819Y561039
X189819Y596039
X179819Y596039
X169819Y596039
X1028362Y393776
X1028362Y403776
X1018362Y403776
X1008362Y403776
X998362Y403776
X988362Y403776
X978362Y403776
X968362Y403776
X958362Y403776
X948362Y403776
X938362Y403776
X928362Y403776
X918362Y403776
X908362Y403776
X898362Y403776
X888362Y403776
X878362Y403776
X868362Y403776
X858362Y403776
X848362Y403776
X838362Y403776
X838362Y393776
X848362Y393776
X858362Y393776
X868362Y393776
X878362Y393776
X888362Y393776
X898362Y393776
X908362Y393776
X918362Y393776
X928362Y393776
X938362Y393776
X948362Y393776
X958362Y393776
X968362Y393776
X978362Y393776
X988362Y393776
X998362Y393776
X1008362Y393776
X1018362Y393776
X791984Y560134
X779484Y560134
X766984Y560134
X766984Y570134
X766984Y580134
X779484Y580134
X779484Y570134
X791984Y570134
X791984Y580134
X791984Y590134
X779484Y590134
X766984Y590134
X448827Y443827
X448827Y433827
X448827Y423827
X448827Y413827
X392492Y432021
X392492Y452021
X392545Y469592
X392545Y489592
X379819Y536039
X359819Y536039
X304819Y561039
X359819Y581039
X379819Y581039
X304819Y601039
T08
X964425Y233205
X964425Y246984
X964425Y260764
X964425Y274543
X924425Y274543
X924425Y260764
X924425Y246984
X924425Y233205
X1019031Y327165
X687260Y548165
X647260Y548165
X408818Y489486
X408818Y529486
T09
X1041630Y231197
X1041630Y251197
X1041630Y271197
X1041630Y291197
X627634Y574228
X647634Y574228
X667634Y574228
X687634Y574228
X707634Y574228
X727634Y574228
X747634Y574228
X607634Y574228
X587634Y574228
X567634Y574228
X547634Y574228
X527634Y574228
X507634Y574228
X487634Y574228
X467634Y574228
X447634Y574228
X427634Y574228
X407634Y574228
T10
X187339Y48402
X201118Y77929
X173559Y77929
X187339Y108402
X201118Y137929
X173559Y137929
X187339Y168402
X201118Y197929
X173559Y197929
X187339Y228402
X201118Y257929
X173559Y257929
X187339Y288402
X201118Y317929
X173559Y317929
X187339Y348402
X201118Y377929
X173559Y377929
X187339Y408402
X201118Y437929
X173559Y437929
X187339Y468402
X201118Y497929
X173559Y497929
X266079Y497929
X266079Y468402
X266079Y437929
X266079Y408402
X266079Y377929
X266079Y348402
X266079Y317929
X266079Y288402
X266079Y257929
X266079Y228402
X266079Y197929
X266079Y168402
X266079Y137929
X266079Y108402
X266079Y77929
X266079Y48402
T11
X380055Y103953
X380055Y109858
X380055Y123638
X380055Y137417
X380055Y143323
X409583Y143323
X409583Y123638
X409583Y103953
X470055Y103953
X470055Y109858
X470055Y123638
X470055Y137417
X470055Y143323
X499583Y143323
X499583Y123638
X499583Y103953
X560055Y103953
X560055Y109858
X560055Y123638
X560055Y137417
X560055Y143323
X589583Y143323
X589583Y123638
X589583Y103953
X650055Y103953
X650055Y109858
X650055Y123638
X650055Y137417
X650055Y143323
X679583Y143323
X679583Y123638
X679583Y103953
X740055Y103953
X740055Y109858
X740055Y123638
X740055Y137417
X740055Y143323
X769583Y143323
X769583Y123638
X769583Y103953
X830055Y103953
X830055Y109858
X830055Y123638
X830055Y137417
X830055Y143323
X859583Y143323
X859583Y123638
X859583Y103953
X920055Y103953
X920055Y109858
X920055Y123638
X920055Y137417
X920055Y143323
X949583Y143323
X949583Y123638
X949583Y103953
X1010055Y103953
X1010055Y109858
X1010055Y123638
X1010055Y137417
X1010055Y143323
X1039583Y143323
X1039583Y123638
X1039583Y103953
X1039583Y202378
X1010055Y202378
X949583Y202378
X920055Y202378
X859583Y202378
X830055Y202378
X769583Y202378
X740055Y202378
X679583Y202378
X650055Y202378
X589583Y202378
X560055Y202378
X499583Y202378
X470055Y202378
X409583Y202378
X380055Y202378
T12
X244819Y546039
X304819Y546039
T13
X1044130Y327102
T14
X1054130Y317102
X1034130Y317102
X1034130Y337102
X1054130Y337102
T15
X627969Y481157
X627969Y541157
X467969Y541157
X467969Y481157
T16
X134819Y48165
X134819Y78165
X134819Y108165
X134819Y138165
X134819Y168165
X134819Y198165
X134819Y228165
X134819Y258165
X134819Y288165
X134819Y318165
X134819Y348165
X134819Y378165
X134819Y408165
X134819Y438165
X134819Y468165
X134819Y498165
X134819Y550134
X134819Y580134
X1029819Y68165
X999819Y68165
X969819Y68165
X939819Y68165
X909819Y68165
X879819Y68165
X849819Y68165
X819819Y68165
X789819Y68165
X759819Y68165
X729819Y68165
X699819Y68165
X669819Y68165
X639819Y68165
X609819Y68165
X579819Y68165
X549819Y68165
X519819Y68165
X489819Y68165
X459819Y68165
X429819Y68165
X399819Y68165
X369819Y68165
X339819Y68165
T17
X1047535Y398776
X819189Y398776
X819189Y591689
X1047535Y591689
T18
X785449Y242142
X785449Y458677
X419307Y458677
T19
X69898Y470488
X69898Y519701
X69898Y568913
X1087614Y470488
X1087614Y519701
X1087614Y568913
M30
