G75*
%MOIN*%
%OFA0B0*%
%FSLAX25Y25*%
%IPPOS*%
%LPD*%
%AMOC8*
5,1,8,0,0,1.08239X$1,22.5*
%
%ADD10C,0.00600*%
%ADD11C,0.00000*%
%ADD12R,0.05906X0.14173*%
D10*
X0094504Y0039386D02*
X0094504Y0407496D01*
X0094497Y0408067D01*
X0094476Y0408637D01*
X0094442Y0409207D01*
X0094394Y0409776D01*
X0094332Y0410343D01*
X0094256Y0410909D01*
X0094167Y0411473D01*
X0094064Y0412034D01*
X0093947Y0412593D01*
X0093818Y0413149D01*
X0093674Y0413702D01*
X0093518Y0414251D01*
X0093348Y0414796D01*
X0093165Y0415336D01*
X0092969Y0415872D01*
X0092760Y0416404D01*
X0092538Y0416930D01*
X0092304Y0417450D01*
X0092057Y0417965D01*
X0091798Y0418474D01*
X0091527Y0418976D01*
X0091243Y0419471D01*
X0090948Y0419960D01*
X0090641Y0420441D01*
X0090323Y0420915D01*
X0089993Y0421381D01*
X0089652Y0421838D01*
X0089299Y0422288D01*
X0088937Y0422728D01*
X0088563Y0423160D01*
X0088180Y0423583D01*
X0087786Y0423996D01*
X0087382Y0424400D01*
X0086969Y0424794D01*
X0086546Y0425177D01*
X0086114Y0425551D01*
X0085674Y0425913D01*
X0085224Y0426266D01*
X0084767Y0426607D01*
X0084301Y0426937D01*
X0083827Y0427255D01*
X0083346Y0427562D01*
X0082857Y0427857D01*
X0082362Y0428141D01*
X0081860Y0428412D01*
X0081351Y0428671D01*
X0080836Y0428918D01*
X0080316Y0429152D01*
X0079790Y0429374D01*
X0079258Y0429583D01*
X0078722Y0429779D01*
X0078182Y0429962D01*
X0077637Y0430132D01*
X0077088Y0430288D01*
X0076535Y0430432D01*
X0075979Y0430561D01*
X0075420Y0430678D01*
X0074859Y0430781D01*
X0074295Y0430870D01*
X0073729Y0430946D01*
X0073162Y0431008D01*
X0072593Y0431056D01*
X0072023Y0431090D01*
X0071453Y0431111D01*
X0070882Y0431118D01*
X0070311Y0431125D01*
X0069741Y0431146D01*
X0069171Y0431180D01*
X0068602Y0431228D01*
X0068035Y0431290D01*
X0067469Y0431366D01*
X0066905Y0431455D01*
X0066344Y0431558D01*
X0065785Y0431675D01*
X0065229Y0431804D01*
X0064676Y0431948D01*
X0064127Y0432104D01*
X0063582Y0432274D01*
X0063042Y0432457D01*
X0062506Y0432653D01*
X0061974Y0432862D01*
X0061448Y0433084D01*
X0060928Y0433318D01*
X0060413Y0433565D01*
X0059904Y0433824D01*
X0059402Y0434095D01*
X0058907Y0434379D01*
X0058418Y0434674D01*
X0057937Y0434981D01*
X0057463Y0435299D01*
X0056997Y0435629D01*
X0056540Y0435970D01*
X0056090Y0436323D01*
X0055650Y0436685D01*
X0055218Y0437059D01*
X0054795Y0437442D01*
X0054382Y0437836D01*
X0053978Y0438240D01*
X0053584Y0438653D01*
X0053201Y0439076D01*
X0052827Y0439508D01*
X0052465Y0439948D01*
X0052112Y0440398D01*
X0051771Y0440855D01*
X0051441Y0441321D01*
X0051123Y0441795D01*
X0050816Y0442276D01*
X0050521Y0442765D01*
X0050237Y0443260D01*
X0049966Y0443762D01*
X0049707Y0444271D01*
X0049460Y0444786D01*
X0049226Y0445306D01*
X0049004Y0445832D01*
X0048795Y0446364D01*
X0048599Y0446900D01*
X0048416Y0447440D01*
X0048246Y0447985D01*
X0048090Y0448534D01*
X0047946Y0449087D01*
X0047817Y0449643D01*
X0047700Y0450202D01*
X0047597Y0450763D01*
X0047508Y0451327D01*
X0047432Y0451893D01*
X0047370Y0452460D01*
X0047322Y0453029D01*
X0047288Y0453599D01*
X0047267Y0454169D01*
X0047260Y0454740D01*
X0047260Y0582693D01*
X0047267Y0583264D01*
X0047288Y0583834D01*
X0047322Y0584404D01*
X0047370Y0584973D01*
X0047432Y0585540D01*
X0047508Y0586106D01*
X0047597Y0586670D01*
X0047700Y0587231D01*
X0047817Y0587790D01*
X0047946Y0588346D01*
X0048090Y0588899D01*
X0048246Y0589448D01*
X0048416Y0589993D01*
X0048599Y0590533D01*
X0048795Y0591069D01*
X0049004Y0591601D01*
X0049226Y0592127D01*
X0049460Y0592647D01*
X0049707Y0593162D01*
X0049966Y0593671D01*
X0050237Y0594173D01*
X0050521Y0594668D01*
X0050816Y0595157D01*
X0051123Y0595638D01*
X0051441Y0596112D01*
X0051771Y0596578D01*
X0052112Y0597035D01*
X0052465Y0597485D01*
X0052827Y0597925D01*
X0053201Y0598357D01*
X0053584Y0598780D01*
X0053978Y0599193D01*
X0054382Y0599597D01*
X0054795Y0599991D01*
X0055218Y0600374D01*
X0055650Y0600748D01*
X0056090Y0601110D01*
X0056540Y0601463D01*
X0056997Y0601804D01*
X0057463Y0602134D01*
X0057937Y0602452D01*
X0058418Y0602759D01*
X0058907Y0603054D01*
X0059402Y0603338D01*
X0059904Y0603609D01*
X0060413Y0603868D01*
X0060928Y0604115D01*
X0061448Y0604349D01*
X0061974Y0604571D01*
X0062506Y0604780D01*
X0063042Y0604976D01*
X0063582Y0605159D01*
X0064127Y0605329D01*
X0064676Y0605485D01*
X0065229Y0605629D01*
X0065785Y0605758D01*
X0066344Y0605875D01*
X0066905Y0605978D01*
X0067469Y0606067D01*
X0068035Y0606143D01*
X0068602Y0606205D01*
X0069171Y0606253D01*
X0069741Y0606287D01*
X0070311Y0606308D01*
X0070882Y0606315D01*
X1086630Y0606315D01*
X1087201Y0606308D01*
X1087771Y0606287D01*
X1088341Y0606253D01*
X1088910Y0606205D01*
X1089477Y0606143D01*
X1090043Y0606067D01*
X1090607Y0605978D01*
X1091168Y0605875D01*
X1091727Y0605758D01*
X1092283Y0605629D01*
X1092836Y0605485D01*
X1093385Y0605329D01*
X1093930Y0605159D01*
X1094470Y0604976D01*
X1095006Y0604780D01*
X1095538Y0604571D01*
X1096064Y0604349D01*
X1096584Y0604115D01*
X1097099Y0603868D01*
X1097608Y0603609D01*
X1098110Y0603338D01*
X1098605Y0603054D01*
X1099094Y0602759D01*
X1099575Y0602452D01*
X1100049Y0602134D01*
X1100515Y0601804D01*
X1100972Y0601463D01*
X1101422Y0601110D01*
X1101862Y0600748D01*
X1102294Y0600374D01*
X1102717Y0599991D01*
X1103130Y0599597D01*
X1103534Y0599193D01*
X1103928Y0598780D01*
X1104311Y0598357D01*
X1104685Y0597925D01*
X1105047Y0597485D01*
X1105400Y0597035D01*
X1105741Y0596578D01*
X1106071Y0596112D01*
X1106389Y0595638D01*
X1106696Y0595157D01*
X1106991Y0594668D01*
X1107275Y0594173D01*
X1107546Y0593671D01*
X1107805Y0593162D01*
X1108052Y0592647D01*
X1108286Y0592127D01*
X1108508Y0591601D01*
X1108717Y0591069D01*
X1108913Y0590533D01*
X1109096Y0589993D01*
X1109266Y0589448D01*
X1109422Y0588899D01*
X1109566Y0588346D01*
X1109695Y0587790D01*
X1109812Y0587231D01*
X1109915Y0586670D01*
X1110004Y0586106D01*
X1110080Y0585540D01*
X1110142Y0584973D01*
X1110190Y0584404D01*
X1110224Y0583834D01*
X1110245Y0583264D01*
X1110252Y0582693D01*
X1110252Y0454740D01*
X1110245Y0454169D01*
X1110224Y0453599D01*
X1110190Y0453029D01*
X1110142Y0452460D01*
X1110080Y0451893D01*
X1110004Y0451327D01*
X1109915Y0450763D01*
X1109812Y0450202D01*
X1109695Y0449643D01*
X1109566Y0449087D01*
X1109422Y0448534D01*
X1109266Y0447985D01*
X1109096Y0447440D01*
X1108913Y0446900D01*
X1108717Y0446364D01*
X1108508Y0445832D01*
X1108286Y0445306D01*
X1108052Y0444786D01*
X1107805Y0444271D01*
X1107546Y0443762D01*
X1107275Y0443260D01*
X1106991Y0442765D01*
X1106696Y0442276D01*
X1106389Y0441795D01*
X1106071Y0441321D01*
X1105741Y0440855D01*
X1105400Y0440398D01*
X1105047Y0439948D01*
X1104685Y0439508D01*
X1104311Y0439076D01*
X1103928Y0438653D01*
X1103534Y0438240D01*
X1103130Y0437836D01*
X1102717Y0437442D01*
X1102294Y0437059D01*
X1101862Y0436685D01*
X1101422Y0436323D01*
X1100972Y0435970D01*
X1100515Y0435629D01*
X1100049Y0435299D01*
X1099575Y0434981D01*
X1099094Y0434674D01*
X1098605Y0434379D01*
X1098110Y0434095D01*
X1097608Y0433824D01*
X1097099Y0433565D01*
X1096584Y0433318D01*
X1096064Y0433084D01*
X1095538Y0432862D01*
X1095006Y0432653D01*
X1094470Y0432457D01*
X1093930Y0432274D01*
X1093385Y0432104D01*
X1092836Y0431948D01*
X1092283Y0431804D01*
X1091727Y0431675D01*
X1091168Y0431558D01*
X1090607Y0431455D01*
X1090043Y0431366D01*
X1089477Y0431290D01*
X1088910Y0431228D01*
X1088341Y0431180D01*
X1087771Y0431146D01*
X1087201Y0431125D01*
X1086630Y0431118D01*
X1086059Y0431111D01*
X1085489Y0431090D01*
X1084919Y0431056D01*
X1084350Y0431008D01*
X1083783Y0430946D01*
X1083217Y0430870D01*
X1082653Y0430781D01*
X1082092Y0430678D01*
X1081533Y0430561D01*
X1080977Y0430432D01*
X1080424Y0430288D01*
X1079875Y0430132D01*
X1079330Y0429962D01*
X1078790Y0429779D01*
X1078254Y0429583D01*
X1077722Y0429374D01*
X1077196Y0429152D01*
X1076676Y0428918D01*
X1076161Y0428671D01*
X1075652Y0428412D01*
X1075150Y0428141D01*
X1074655Y0427857D01*
X1074166Y0427562D01*
X1073685Y0427255D01*
X1073211Y0426937D01*
X1072745Y0426607D01*
X1072288Y0426266D01*
X1071838Y0425913D01*
X1071398Y0425551D01*
X1070966Y0425177D01*
X1070543Y0424794D01*
X1070130Y0424400D01*
X1069726Y0423996D01*
X1069332Y0423583D01*
X1068949Y0423160D01*
X1068575Y0422728D01*
X1068213Y0422288D01*
X1067860Y0421838D01*
X1067519Y0421381D01*
X1067189Y0420915D01*
X1066871Y0420441D01*
X1066564Y0419960D01*
X1066269Y0419471D01*
X1065985Y0418976D01*
X1065714Y0418474D01*
X1065455Y0417965D01*
X1065208Y0417450D01*
X1064974Y0416930D01*
X1064752Y0416404D01*
X1064543Y0415872D01*
X1064347Y0415336D01*
X1064164Y0414796D01*
X1063994Y0414251D01*
X1063838Y0413702D01*
X1063694Y0413149D01*
X1063565Y0412593D01*
X1063448Y0412034D01*
X1063345Y0411473D01*
X1063256Y0410909D01*
X1063180Y0410343D01*
X1063118Y0409776D01*
X1063070Y0409207D01*
X1063036Y0408637D01*
X1063015Y0408067D01*
X1063008Y0407496D01*
X1063008Y0039386D01*
X1063005Y0039101D01*
X1062994Y0038815D01*
X1062977Y0038530D01*
X1062953Y0038246D01*
X1062922Y0037962D01*
X1062884Y0037679D01*
X1062839Y0037398D01*
X1062788Y0037117D01*
X1062730Y0036837D01*
X1062665Y0036559D01*
X1062593Y0036283D01*
X1062515Y0036009D01*
X1062430Y0035736D01*
X1062338Y0035466D01*
X1062240Y0035198D01*
X1062136Y0034932D01*
X1062025Y0034669D01*
X1061908Y0034409D01*
X1061785Y0034151D01*
X1061655Y0033897D01*
X1061519Y0033646D01*
X1061378Y0033398D01*
X1061230Y0033154D01*
X1061077Y0032913D01*
X1060917Y0032677D01*
X1060752Y0032444D01*
X1060582Y0032215D01*
X1060406Y0031990D01*
X1060224Y0031770D01*
X1060038Y0031554D01*
X1059846Y0031343D01*
X1059649Y0031136D01*
X1059447Y0030934D01*
X1059240Y0030737D01*
X1059029Y0030545D01*
X1058813Y0030359D01*
X1058593Y0030177D01*
X1058368Y0030001D01*
X1058139Y0029831D01*
X1057906Y0029666D01*
X1057670Y0029506D01*
X1057429Y0029353D01*
X1057185Y0029205D01*
X1056937Y0029064D01*
X1056686Y0028928D01*
X1056432Y0028798D01*
X1056174Y0028675D01*
X1055914Y0028558D01*
X1055651Y0028447D01*
X1055385Y0028343D01*
X1055117Y0028245D01*
X1054847Y0028153D01*
X1054574Y0028068D01*
X1054300Y0027990D01*
X1054024Y0027918D01*
X1053746Y0027853D01*
X1053466Y0027795D01*
X1053185Y0027744D01*
X1052904Y0027699D01*
X1052621Y0027661D01*
X1052337Y0027630D01*
X1052053Y0027606D01*
X1051768Y0027589D01*
X1051482Y0027578D01*
X1051197Y0027575D01*
X0106315Y0027575D01*
X0106030Y0027578D01*
X0105744Y0027589D01*
X0105459Y0027606D01*
X0105175Y0027630D01*
X0104891Y0027661D01*
X0104608Y0027699D01*
X0104327Y0027744D01*
X0104046Y0027795D01*
X0103766Y0027853D01*
X0103488Y0027918D01*
X0103212Y0027990D01*
X0102938Y0028068D01*
X0102665Y0028153D01*
X0102395Y0028245D01*
X0102127Y0028343D01*
X0101861Y0028447D01*
X0101598Y0028558D01*
X0101338Y0028675D01*
X0101080Y0028798D01*
X0100826Y0028928D01*
X0100575Y0029064D01*
X0100327Y0029205D01*
X0100083Y0029353D01*
X0099842Y0029506D01*
X0099606Y0029666D01*
X0099373Y0029831D01*
X0099144Y0030001D01*
X0098919Y0030177D01*
X0098699Y0030359D01*
X0098483Y0030545D01*
X0098272Y0030737D01*
X0098065Y0030934D01*
X0097863Y0031136D01*
X0097666Y0031343D01*
X0097474Y0031554D01*
X0097288Y0031770D01*
X0097106Y0031990D01*
X0096930Y0032215D01*
X0096760Y0032444D01*
X0096595Y0032677D01*
X0096435Y0032913D01*
X0096282Y0033154D01*
X0096134Y0033398D01*
X0095993Y0033646D01*
X0095857Y0033897D01*
X0095727Y0034151D01*
X0095604Y0034409D01*
X0095487Y0034669D01*
X0095376Y0034932D01*
X0095272Y0035198D01*
X0095174Y0035466D01*
X0095082Y0035736D01*
X0094997Y0036009D01*
X0094919Y0036283D01*
X0094847Y0036559D01*
X0094782Y0036837D01*
X0094724Y0037117D01*
X0094673Y0037398D01*
X0094628Y0037679D01*
X0094590Y0037962D01*
X0094559Y0038246D01*
X0094535Y0038530D01*
X0094518Y0038815D01*
X0094507Y0039101D01*
X0094504Y0039386D01*
D11*
X0464719Y0481157D02*
X0464721Y0481270D01*
X0464727Y0481384D01*
X0464737Y0481497D01*
X0464751Y0481609D01*
X0464768Y0481721D01*
X0464790Y0481833D01*
X0464816Y0481943D01*
X0464845Y0482053D01*
X0464878Y0482161D01*
X0464915Y0482269D01*
X0464956Y0482374D01*
X0465000Y0482479D01*
X0465048Y0482582D01*
X0465099Y0482683D01*
X0465154Y0482782D01*
X0465213Y0482879D01*
X0465275Y0482974D01*
X0465340Y0483067D01*
X0465408Y0483158D01*
X0465479Y0483246D01*
X0465554Y0483332D01*
X0465631Y0483415D01*
X0465711Y0483495D01*
X0465794Y0483572D01*
X0465880Y0483647D01*
X0465968Y0483718D01*
X0466059Y0483786D01*
X0466152Y0483851D01*
X0466247Y0483913D01*
X0466344Y0483972D01*
X0466443Y0484027D01*
X0466544Y0484078D01*
X0466647Y0484126D01*
X0466752Y0484170D01*
X0466857Y0484211D01*
X0466965Y0484248D01*
X0467073Y0484281D01*
X0467183Y0484310D01*
X0467293Y0484336D01*
X0467405Y0484358D01*
X0467517Y0484375D01*
X0467629Y0484389D01*
X0467742Y0484399D01*
X0467856Y0484405D01*
X0467969Y0484407D01*
X0468082Y0484405D01*
X0468196Y0484399D01*
X0468309Y0484389D01*
X0468421Y0484375D01*
X0468533Y0484358D01*
X0468645Y0484336D01*
X0468755Y0484310D01*
X0468865Y0484281D01*
X0468973Y0484248D01*
X0469081Y0484211D01*
X0469186Y0484170D01*
X0469291Y0484126D01*
X0469394Y0484078D01*
X0469495Y0484027D01*
X0469594Y0483972D01*
X0469691Y0483913D01*
X0469786Y0483851D01*
X0469879Y0483786D01*
X0469970Y0483718D01*
X0470058Y0483647D01*
X0470144Y0483572D01*
X0470227Y0483495D01*
X0470307Y0483415D01*
X0470384Y0483332D01*
X0470459Y0483246D01*
X0470530Y0483158D01*
X0470598Y0483067D01*
X0470663Y0482974D01*
X0470725Y0482879D01*
X0470784Y0482782D01*
X0470839Y0482683D01*
X0470890Y0482582D01*
X0470938Y0482479D01*
X0470982Y0482374D01*
X0471023Y0482269D01*
X0471060Y0482161D01*
X0471093Y0482053D01*
X0471122Y0481943D01*
X0471148Y0481833D01*
X0471170Y0481721D01*
X0471187Y0481609D01*
X0471201Y0481497D01*
X0471211Y0481384D01*
X0471217Y0481270D01*
X0471219Y0481157D01*
X0471217Y0481044D01*
X0471211Y0480930D01*
X0471201Y0480817D01*
X0471187Y0480705D01*
X0471170Y0480593D01*
X0471148Y0480481D01*
X0471122Y0480371D01*
X0471093Y0480261D01*
X0471060Y0480153D01*
X0471023Y0480045D01*
X0470982Y0479940D01*
X0470938Y0479835D01*
X0470890Y0479732D01*
X0470839Y0479631D01*
X0470784Y0479532D01*
X0470725Y0479435D01*
X0470663Y0479340D01*
X0470598Y0479247D01*
X0470530Y0479156D01*
X0470459Y0479068D01*
X0470384Y0478982D01*
X0470307Y0478899D01*
X0470227Y0478819D01*
X0470144Y0478742D01*
X0470058Y0478667D01*
X0469970Y0478596D01*
X0469879Y0478528D01*
X0469786Y0478463D01*
X0469691Y0478401D01*
X0469594Y0478342D01*
X0469495Y0478287D01*
X0469394Y0478236D01*
X0469291Y0478188D01*
X0469186Y0478144D01*
X0469081Y0478103D01*
X0468973Y0478066D01*
X0468865Y0478033D01*
X0468755Y0478004D01*
X0468645Y0477978D01*
X0468533Y0477956D01*
X0468421Y0477939D01*
X0468309Y0477925D01*
X0468196Y0477915D01*
X0468082Y0477909D01*
X0467969Y0477907D01*
X0467856Y0477909D01*
X0467742Y0477915D01*
X0467629Y0477925D01*
X0467517Y0477939D01*
X0467405Y0477956D01*
X0467293Y0477978D01*
X0467183Y0478004D01*
X0467073Y0478033D01*
X0466965Y0478066D01*
X0466857Y0478103D01*
X0466752Y0478144D01*
X0466647Y0478188D01*
X0466544Y0478236D01*
X0466443Y0478287D01*
X0466344Y0478342D01*
X0466247Y0478401D01*
X0466152Y0478463D01*
X0466059Y0478528D01*
X0465968Y0478596D01*
X0465880Y0478667D01*
X0465794Y0478742D01*
X0465711Y0478819D01*
X0465631Y0478899D01*
X0465554Y0478982D01*
X0465479Y0479068D01*
X0465408Y0479156D01*
X0465340Y0479247D01*
X0465275Y0479340D01*
X0465213Y0479435D01*
X0465154Y0479532D01*
X0465099Y0479631D01*
X0465048Y0479732D01*
X0465000Y0479835D01*
X0464956Y0479940D01*
X0464915Y0480045D01*
X0464878Y0480153D01*
X0464845Y0480261D01*
X0464816Y0480371D01*
X0464790Y0480481D01*
X0464768Y0480593D01*
X0464751Y0480705D01*
X0464737Y0480817D01*
X0464727Y0480930D01*
X0464721Y0481044D01*
X0464719Y0481157D01*
X0464719Y0541157D02*
X0464721Y0541270D01*
X0464727Y0541384D01*
X0464737Y0541497D01*
X0464751Y0541609D01*
X0464768Y0541721D01*
X0464790Y0541833D01*
X0464816Y0541943D01*
X0464845Y0542053D01*
X0464878Y0542161D01*
X0464915Y0542269D01*
X0464956Y0542374D01*
X0465000Y0542479D01*
X0465048Y0542582D01*
X0465099Y0542683D01*
X0465154Y0542782D01*
X0465213Y0542879D01*
X0465275Y0542974D01*
X0465340Y0543067D01*
X0465408Y0543158D01*
X0465479Y0543246D01*
X0465554Y0543332D01*
X0465631Y0543415D01*
X0465711Y0543495D01*
X0465794Y0543572D01*
X0465880Y0543647D01*
X0465968Y0543718D01*
X0466059Y0543786D01*
X0466152Y0543851D01*
X0466247Y0543913D01*
X0466344Y0543972D01*
X0466443Y0544027D01*
X0466544Y0544078D01*
X0466647Y0544126D01*
X0466752Y0544170D01*
X0466857Y0544211D01*
X0466965Y0544248D01*
X0467073Y0544281D01*
X0467183Y0544310D01*
X0467293Y0544336D01*
X0467405Y0544358D01*
X0467517Y0544375D01*
X0467629Y0544389D01*
X0467742Y0544399D01*
X0467856Y0544405D01*
X0467969Y0544407D01*
X0468082Y0544405D01*
X0468196Y0544399D01*
X0468309Y0544389D01*
X0468421Y0544375D01*
X0468533Y0544358D01*
X0468645Y0544336D01*
X0468755Y0544310D01*
X0468865Y0544281D01*
X0468973Y0544248D01*
X0469081Y0544211D01*
X0469186Y0544170D01*
X0469291Y0544126D01*
X0469394Y0544078D01*
X0469495Y0544027D01*
X0469594Y0543972D01*
X0469691Y0543913D01*
X0469786Y0543851D01*
X0469879Y0543786D01*
X0469970Y0543718D01*
X0470058Y0543647D01*
X0470144Y0543572D01*
X0470227Y0543495D01*
X0470307Y0543415D01*
X0470384Y0543332D01*
X0470459Y0543246D01*
X0470530Y0543158D01*
X0470598Y0543067D01*
X0470663Y0542974D01*
X0470725Y0542879D01*
X0470784Y0542782D01*
X0470839Y0542683D01*
X0470890Y0542582D01*
X0470938Y0542479D01*
X0470982Y0542374D01*
X0471023Y0542269D01*
X0471060Y0542161D01*
X0471093Y0542053D01*
X0471122Y0541943D01*
X0471148Y0541833D01*
X0471170Y0541721D01*
X0471187Y0541609D01*
X0471201Y0541497D01*
X0471211Y0541384D01*
X0471217Y0541270D01*
X0471219Y0541157D01*
X0471217Y0541044D01*
X0471211Y0540930D01*
X0471201Y0540817D01*
X0471187Y0540705D01*
X0471170Y0540593D01*
X0471148Y0540481D01*
X0471122Y0540371D01*
X0471093Y0540261D01*
X0471060Y0540153D01*
X0471023Y0540045D01*
X0470982Y0539940D01*
X0470938Y0539835D01*
X0470890Y0539732D01*
X0470839Y0539631D01*
X0470784Y0539532D01*
X0470725Y0539435D01*
X0470663Y0539340D01*
X0470598Y0539247D01*
X0470530Y0539156D01*
X0470459Y0539068D01*
X0470384Y0538982D01*
X0470307Y0538899D01*
X0470227Y0538819D01*
X0470144Y0538742D01*
X0470058Y0538667D01*
X0469970Y0538596D01*
X0469879Y0538528D01*
X0469786Y0538463D01*
X0469691Y0538401D01*
X0469594Y0538342D01*
X0469495Y0538287D01*
X0469394Y0538236D01*
X0469291Y0538188D01*
X0469186Y0538144D01*
X0469081Y0538103D01*
X0468973Y0538066D01*
X0468865Y0538033D01*
X0468755Y0538004D01*
X0468645Y0537978D01*
X0468533Y0537956D01*
X0468421Y0537939D01*
X0468309Y0537925D01*
X0468196Y0537915D01*
X0468082Y0537909D01*
X0467969Y0537907D01*
X0467856Y0537909D01*
X0467742Y0537915D01*
X0467629Y0537925D01*
X0467517Y0537939D01*
X0467405Y0537956D01*
X0467293Y0537978D01*
X0467183Y0538004D01*
X0467073Y0538033D01*
X0466965Y0538066D01*
X0466857Y0538103D01*
X0466752Y0538144D01*
X0466647Y0538188D01*
X0466544Y0538236D01*
X0466443Y0538287D01*
X0466344Y0538342D01*
X0466247Y0538401D01*
X0466152Y0538463D01*
X0466059Y0538528D01*
X0465968Y0538596D01*
X0465880Y0538667D01*
X0465794Y0538742D01*
X0465711Y0538819D01*
X0465631Y0538899D01*
X0465554Y0538982D01*
X0465479Y0539068D01*
X0465408Y0539156D01*
X0465340Y0539247D01*
X0465275Y0539340D01*
X0465213Y0539435D01*
X0465154Y0539532D01*
X0465099Y0539631D01*
X0465048Y0539732D01*
X0465000Y0539835D01*
X0464956Y0539940D01*
X0464915Y0540045D01*
X0464878Y0540153D01*
X0464845Y0540261D01*
X0464816Y0540371D01*
X0464790Y0540481D01*
X0464768Y0540593D01*
X0464751Y0540705D01*
X0464737Y0540817D01*
X0464727Y0540930D01*
X0464721Y0541044D01*
X0464719Y0541157D01*
X0624719Y0541157D02*
X0624721Y0541270D01*
X0624727Y0541384D01*
X0624737Y0541497D01*
X0624751Y0541609D01*
X0624768Y0541721D01*
X0624790Y0541833D01*
X0624816Y0541943D01*
X0624845Y0542053D01*
X0624878Y0542161D01*
X0624915Y0542269D01*
X0624956Y0542374D01*
X0625000Y0542479D01*
X0625048Y0542582D01*
X0625099Y0542683D01*
X0625154Y0542782D01*
X0625213Y0542879D01*
X0625275Y0542974D01*
X0625340Y0543067D01*
X0625408Y0543158D01*
X0625479Y0543246D01*
X0625554Y0543332D01*
X0625631Y0543415D01*
X0625711Y0543495D01*
X0625794Y0543572D01*
X0625880Y0543647D01*
X0625968Y0543718D01*
X0626059Y0543786D01*
X0626152Y0543851D01*
X0626247Y0543913D01*
X0626344Y0543972D01*
X0626443Y0544027D01*
X0626544Y0544078D01*
X0626647Y0544126D01*
X0626752Y0544170D01*
X0626857Y0544211D01*
X0626965Y0544248D01*
X0627073Y0544281D01*
X0627183Y0544310D01*
X0627293Y0544336D01*
X0627405Y0544358D01*
X0627517Y0544375D01*
X0627629Y0544389D01*
X0627742Y0544399D01*
X0627856Y0544405D01*
X0627969Y0544407D01*
X0628082Y0544405D01*
X0628196Y0544399D01*
X0628309Y0544389D01*
X0628421Y0544375D01*
X0628533Y0544358D01*
X0628645Y0544336D01*
X0628755Y0544310D01*
X0628865Y0544281D01*
X0628973Y0544248D01*
X0629081Y0544211D01*
X0629186Y0544170D01*
X0629291Y0544126D01*
X0629394Y0544078D01*
X0629495Y0544027D01*
X0629594Y0543972D01*
X0629691Y0543913D01*
X0629786Y0543851D01*
X0629879Y0543786D01*
X0629970Y0543718D01*
X0630058Y0543647D01*
X0630144Y0543572D01*
X0630227Y0543495D01*
X0630307Y0543415D01*
X0630384Y0543332D01*
X0630459Y0543246D01*
X0630530Y0543158D01*
X0630598Y0543067D01*
X0630663Y0542974D01*
X0630725Y0542879D01*
X0630784Y0542782D01*
X0630839Y0542683D01*
X0630890Y0542582D01*
X0630938Y0542479D01*
X0630982Y0542374D01*
X0631023Y0542269D01*
X0631060Y0542161D01*
X0631093Y0542053D01*
X0631122Y0541943D01*
X0631148Y0541833D01*
X0631170Y0541721D01*
X0631187Y0541609D01*
X0631201Y0541497D01*
X0631211Y0541384D01*
X0631217Y0541270D01*
X0631219Y0541157D01*
X0631217Y0541044D01*
X0631211Y0540930D01*
X0631201Y0540817D01*
X0631187Y0540705D01*
X0631170Y0540593D01*
X0631148Y0540481D01*
X0631122Y0540371D01*
X0631093Y0540261D01*
X0631060Y0540153D01*
X0631023Y0540045D01*
X0630982Y0539940D01*
X0630938Y0539835D01*
X0630890Y0539732D01*
X0630839Y0539631D01*
X0630784Y0539532D01*
X0630725Y0539435D01*
X0630663Y0539340D01*
X0630598Y0539247D01*
X0630530Y0539156D01*
X0630459Y0539068D01*
X0630384Y0538982D01*
X0630307Y0538899D01*
X0630227Y0538819D01*
X0630144Y0538742D01*
X0630058Y0538667D01*
X0629970Y0538596D01*
X0629879Y0538528D01*
X0629786Y0538463D01*
X0629691Y0538401D01*
X0629594Y0538342D01*
X0629495Y0538287D01*
X0629394Y0538236D01*
X0629291Y0538188D01*
X0629186Y0538144D01*
X0629081Y0538103D01*
X0628973Y0538066D01*
X0628865Y0538033D01*
X0628755Y0538004D01*
X0628645Y0537978D01*
X0628533Y0537956D01*
X0628421Y0537939D01*
X0628309Y0537925D01*
X0628196Y0537915D01*
X0628082Y0537909D01*
X0627969Y0537907D01*
X0627856Y0537909D01*
X0627742Y0537915D01*
X0627629Y0537925D01*
X0627517Y0537939D01*
X0627405Y0537956D01*
X0627293Y0537978D01*
X0627183Y0538004D01*
X0627073Y0538033D01*
X0626965Y0538066D01*
X0626857Y0538103D01*
X0626752Y0538144D01*
X0626647Y0538188D01*
X0626544Y0538236D01*
X0626443Y0538287D01*
X0626344Y0538342D01*
X0626247Y0538401D01*
X0626152Y0538463D01*
X0626059Y0538528D01*
X0625968Y0538596D01*
X0625880Y0538667D01*
X0625794Y0538742D01*
X0625711Y0538819D01*
X0625631Y0538899D01*
X0625554Y0538982D01*
X0625479Y0539068D01*
X0625408Y0539156D01*
X0625340Y0539247D01*
X0625275Y0539340D01*
X0625213Y0539435D01*
X0625154Y0539532D01*
X0625099Y0539631D01*
X0625048Y0539732D01*
X0625000Y0539835D01*
X0624956Y0539940D01*
X0624915Y0540045D01*
X0624878Y0540153D01*
X0624845Y0540261D01*
X0624816Y0540371D01*
X0624790Y0540481D01*
X0624768Y0540593D01*
X0624751Y0540705D01*
X0624737Y0540817D01*
X0624727Y0540930D01*
X0624721Y0541044D01*
X0624719Y0541157D01*
X0624719Y0481157D02*
X0624721Y0481270D01*
X0624727Y0481384D01*
X0624737Y0481497D01*
X0624751Y0481609D01*
X0624768Y0481721D01*
X0624790Y0481833D01*
X0624816Y0481943D01*
X0624845Y0482053D01*
X0624878Y0482161D01*
X0624915Y0482269D01*
X0624956Y0482374D01*
X0625000Y0482479D01*
X0625048Y0482582D01*
X0625099Y0482683D01*
X0625154Y0482782D01*
X0625213Y0482879D01*
X0625275Y0482974D01*
X0625340Y0483067D01*
X0625408Y0483158D01*
X0625479Y0483246D01*
X0625554Y0483332D01*
X0625631Y0483415D01*
X0625711Y0483495D01*
X0625794Y0483572D01*
X0625880Y0483647D01*
X0625968Y0483718D01*
X0626059Y0483786D01*
X0626152Y0483851D01*
X0626247Y0483913D01*
X0626344Y0483972D01*
X0626443Y0484027D01*
X0626544Y0484078D01*
X0626647Y0484126D01*
X0626752Y0484170D01*
X0626857Y0484211D01*
X0626965Y0484248D01*
X0627073Y0484281D01*
X0627183Y0484310D01*
X0627293Y0484336D01*
X0627405Y0484358D01*
X0627517Y0484375D01*
X0627629Y0484389D01*
X0627742Y0484399D01*
X0627856Y0484405D01*
X0627969Y0484407D01*
X0628082Y0484405D01*
X0628196Y0484399D01*
X0628309Y0484389D01*
X0628421Y0484375D01*
X0628533Y0484358D01*
X0628645Y0484336D01*
X0628755Y0484310D01*
X0628865Y0484281D01*
X0628973Y0484248D01*
X0629081Y0484211D01*
X0629186Y0484170D01*
X0629291Y0484126D01*
X0629394Y0484078D01*
X0629495Y0484027D01*
X0629594Y0483972D01*
X0629691Y0483913D01*
X0629786Y0483851D01*
X0629879Y0483786D01*
X0629970Y0483718D01*
X0630058Y0483647D01*
X0630144Y0483572D01*
X0630227Y0483495D01*
X0630307Y0483415D01*
X0630384Y0483332D01*
X0630459Y0483246D01*
X0630530Y0483158D01*
X0630598Y0483067D01*
X0630663Y0482974D01*
X0630725Y0482879D01*
X0630784Y0482782D01*
X0630839Y0482683D01*
X0630890Y0482582D01*
X0630938Y0482479D01*
X0630982Y0482374D01*
X0631023Y0482269D01*
X0631060Y0482161D01*
X0631093Y0482053D01*
X0631122Y0481943D01*
X0631148Y0481833D01*
X0631170Y0481721D01*
X0631187Y0481609D01*
X0631201Y0481497D01*
X0631211Y0481384D01*
X0631217Y0481270D01*
X0631219Y0481157D01*
X0631217Y0481044D01*
X0631211Y0480930D01*
X0631201Y0480817D01*
X0631187Y0480705D01*
X0631170Y0480593D01*
X0631148Y0480481D01*
X0631122Y0480371D01*
X0631093Y0480261D01*
X0631060Y0480153D01*
X0631023Y0480045D01*
X0630982Y0479940D01*
X0630938Y0479835D01*
X0630890Y0479732D01*
X0630839Y0479631D01*
X0630784Y0479532D01*
X0630725Y0479435D01*
X0630663Y0479340D01*
X0630598Y0479247D01*
X0630530Y0479156D01*
X0630459Y0479068D01*
X0630384Y0478982D01*
X0630307Y0478899D01*
X0630227Y0478819D01*
X0630144Y0478742D01*
X0630058Y0478667D01*
X0629970Y0478596D01*
X0629879Y0478528D01*
X0629786Y0478463D01*
X0629691Y0478401D01*
X0629594Y0478342D01*
X0629495Y0478287D01*
X0629394Y0478236D01*
X0629291Y0478188D01*
X0629186Y0478144D01*
X0629081Y0478103D01*
X0628973Y0478066D01*
X0628865Y0478033D01*
X0628755Y0478004D01*
X0628645Y0477978D01*
X0628533Y0477956D01*
X0628421Y0477939D01*
X0628309Y0477925D01*
X0628196Y0477915D01*
X0628082Y0477909D01*
X0627969Y0477907D01*
X0627856Y0477909D01*
X0627742Y0477915D01*
X0627629Y0477925D01*
X0627517Y0477939D01*
X0627405Y0477956D01*
X0627293Y0477978D01*
X0627183Y0478004D01*
X0627073Y0478033D01*
X0626965Y0478066D01*
X0626857Y0478103D01*
X0626752Y0478144D01*
X0626647Y0478188D01*
X0626544Y0478236D01*
X0626443Y0478287D01*
X0626344Y0478342D01*
X0626247Y0478401D01*
X0626152Y0478463D01*
X0626059Y0478528D01*
X0625968Y0478596D01*
X0625880Y0478667D01*
X0625794Y0478742D01*
X0625711Y0478819D01*
X0625631Y0478899D01*
X0625554Y0478982D01*
X0625479Y0479068D01*
X0625408Y0479156D01*
X0625340Y0479247D01*
X0625275Y0479340D01*
X0625213Y0479435D01*
X0625154Y0479532D01*
X0625099Y0479631D01*
X0625048Y0479732D01*
X0625000Y0479835D01*
X0624956Y0479940D01*
X0624915Y0480045D01*
X0624878Y0480153D01*
X0624845Y0480261D01*
X0624816Y0480371D01*
X0624790Y0480481D01*
X0624768Y0480593D01*
X0624751Y0480705D01*
X0624737Y0480817D01*
X0624727Y0480930D01*
X0624721Y0481044D01*
X0624719Y0481157D01*
D12*
X0942535Y0372457D03*
X0950409Y0372457D03*
X0958283Y0372457D03*
X0966157Y0372457D03*
X0974031Y0372457D03*
X0981906Y0372457D03*
X0989780Y0372457D03*
X0997654Y0372457D03*
X0997654Y0309465D03*
X0989780Y0309465D03*
X0981906Y0309465D03*
X0974031Y0309465D03*
X0966157Y0309465D03*
X0958283Y0309465D03*
X0950409Y0309465D03*
X0942535Y0309465D03*
M02*
